<?xml version="1.0" standalone="no"?><!DOCTYPE svg PUBLIC "-//W3C//DTD SVG 1.1//EN" "http://www.w3.org/Graphics/SVG/1.1/DTD/svg11.dtd"><svg t="1536806533269" class="icon" style="" viewBox="0 0 1024 1024" version="1.1" xmlns="http://www.w3.org/2000/svg" p-id="3318" xmlns:xlink="http://www.w3.org/1999/xlink" width="200" height="200"><defs><style type="text/css"></style></defs><path d="M859.55584 1023.56992H164.8896c-41.94816 0-76.06784-34.11968-76.06784-76.05248V76.51328c0-41.95328 34.11968-76.0832 76.06784-76.0832h541.70112l229.03296 239.42144v707.66592c0 41.9328-34.11968 76.05248-76.06784 76.05248zM164.8896 50.63168a25.9072 25.9072 0 0 0-25.86624 25.88672v871.00416a25.89184 25.89184 0 0 0 25.86624 25.85088h694.66624a25.89184 25.89184 0 0 0 25.86624-25.85088V259.99872L685.14816 50.63168H164.8896z m745.63584 224.39424h-163.6864c-41.94816 0-76.06784-34.11968-76.06784-76.05248V25.53344a25.10848 25.10848 0 0 1 15.74912-23.296 25.14432 25.14432 0 0 1 27.48416 5.9392l214.656 224.39424a25.09312 25.09312 0 0 1 4.93568 27.2128 25.07776 25.07776 0 0 1-23.07072 15.24224z m-189.55776-186.95168v110.8992a25.8816 25.8816 0 0 0 25.86624 25.85088h104.93952l-130.80576-136.75008z" fill="#d4237a" p-id="3319"></path><path d="M234.24 653.76256l43.7504-6.00064c1.16736 28.00128 6.41536 47.17056 15.74912 57.4976 9.33376 10.33728 22.25152 15.49824 38.74816 15.49824 12.16512 0 22.66624-2.7904 31.49824-8.37632 8.832-5.58592 14.91456-13.16352 18.24768-22.74816 3.328-9.58464 5.00224-24.87296 5.00224-45.8752V391.26016h48.50176v249.74848c0 30.6688-3.712 54.42048-11.12576 71.24992-7.41888 16.83456-19.16928 29.6704-35.2512 38.5024-16.08704 8.832-34.95936 13.25056-56.6272 13.25056-32.16896 0-56.79104-9.25184-73.87648-27.7504-17.0752-18.49856-25.28256-46.0032-24.61696-82.49856zM498.48832 640.01024l45.75232-3.99872c2.16576 18.33472 7.20384 33.37728 15.12448 45.12256 7.91552 11.7504 20.20352 21.248 36.87424 28.49792 16.6656 7.24992 35.41504 10.87488 56.24832 10.87488 18.49856 0 34.83136-2.74944 48.9984-8.24832 14.16704-5.49888 24.704-13.04064 31.62624-22.62528 6.91712-9.58464 10.37312-20.03968 10.37312-31.37536 0-11.49952-3.33312-21.53984-9.99936-30.12608-6.67136-8.58624-17.66912-15.79008-32.9984-21.62688-9.83552-3.82976-31.58528-9.78944-65.24928-17.87392-33.66912-8.08448-57.25184-15.70304-70.74816-22.87616-17.50016-9.1648-30.54592-20.54144-39.12704-34.1248-8.58624-13.58336-12.8768-28.78976-12.8768-45.62432 0-18.49856 5.248-35.7888 15.74912-51.87584 10.50112-16.08192 25.8304-28.288 45.99808-36.62336 20.16256-8.33024 42.57792-12.49792 67.2512-12.49792 27.16672 0 51.1232 4.37248 71.87456 13.12256s36.70528 21.62688 47.87712 38.62528c11.16672 16.9984 17.16736 36.2496 18.00192 57.74848l-46.49984 3.50208c-2.49856-23.16288-10.96192-40.66304-25.37472-52.50048-14.41792-11.83232-35.712-17.75104-63.87712-17.75104-29.33248 0-50.70848 5.376-64.12288 16.12288-13.41952 10.752-20.12672 23.71072-20.12672 38.87616 0 13.16864 4.75136 24.00256 14.24896 32.50176 9.32864 8.4992 33.70496 17.20832 73.12384 26.12736 39.41376 8.91392 66.45248 16.71168 81.1264 23.3728 21.32992 9.83552 37.07904 22.29248 47.25248 37.376 10.1632 15.08352 15.25248 32.4608 15.25248 52.12672 0 19.50208-5.58592 37.87264-16.74752 55.12704-11.17184 17.24928-27.20768 30.66368-48.12288 40.24832-20.92032 9.57952-44.46208 14.37696-70.62528 14.37696-33.17248 0-60.95872-4.83328-83.37408-14.49984-22.42048-9.66656-40.00256-24.21248-52.75136-43.62752s-19.46624-41.37472-20.13184-65.87392z" fill="#d4237a" p-id="3320"></path></svg>