<!-- Generated by IcoMoon.io -->
<svg version="1.1" xmlns="http://www.w3.org/2000/svg" width="1024" height="1024" viewBox="0 0 1024 1024">
<title></title>
<g id="icomoon-ignore">
</g>
<path fill="#339af0" d="M1018.736 512c0-282.768-228.050-512-509.361-512-281.324 0-509.374 229.232-509.374 512 0 282.762 228.050 512 509.368 512s509.368-229.238 509.368-512z"></path>
<path fill="#fff" d="M414.519 270.443c-4.761 6.409-7.622 14.478-7.622 23.214 0 7.393 2.049 14.308 5.61 20.208l-0.098-0.176c2.684 4.443 6.076 8.172 10.063 11.147l0.102 0.073c59.329 44.202 93.391 111.786 93.391 185.451s-34.062 141.249-93.391 185.451c-4.083 3.050-7.472 6.778-10.055 11.048l-0.097 0.172c-3.471 5.716-5.525 12.627-5.525 20.017 0 3.362 0.425 6.624 1.225 9.736l-0.059-0.271c1.238 4.963 3.43 9.631 6.458 13.733 7.119 9.589 18.406 15.735 31.13 15.735 8.71 0 16.746-2.88 23.21-7.74l-0.099 0.071c18.635-13.981 34.992-29.228 49.596-46.039l0.328-0.386h109.895c21.397 0 38.786-17.414 38.786-38.912s-17.351-38.912-38.786-38.912h-60.655c16.163-36.255 25.576-78.561 25.576-123.065 0-0.222 0-0.444-0.001-0.666v0.034c0-0.196 0.001-0.427 0.001-0.659 0-44.499-9.41-86.8-26.349-125.021l0.78 1.971h60.686c21.397 0 38.78-17.408 38.78-38.912 0-21.498-17.351-38.906-38.78-38.906h-109.87c-14.941-17.216-31.308-32.477-49.148-45.888l-0.809-0.582c-6.359-4.784-14.389-7.662-23.092-7.662-2 0-3.965 0.152-5.883 0.445l0.215-0.027c-10.496 1.618-19.444 7.234-25.401 15.214l-0.073 0.102h-0.038z"></path>
<path fill="#fff" d="M353.286 498.751c-0.011-0.418-0.017-0.91-0.017-1.404 0-7.65 1.464-14.958 4.126-21.659l-0.139 0.397c2.961-7.508 7.147-13.933 12.374-19.347l-0.016 0.017c5.221-5.408 11.47-9.783 18.438-12.816l0.371-0.144c6.581-2.88 14.25-4.555 22.311-4.555s15.73 1.676 22.679 4.698l-0.367-0.142c7.341 3.177 13.593 7.552 18.799 12.943l0.016 0.017c5.21 5.397 9.396 11.823 12.219 18.937l0.138 0.393c2.516 6.296 3.975 13.592 3.975 21.23 0 0.505-0.006 1.009-0.019 1.511l0.001-0.074c-0.374 15.745-6.92 29.891-17.303 40.17l-0.005 0.005c-10.304 10.2-24.48 16.507-40.128 16.522h-0.003c-15.656-0.012-29.836-6.319-40.148-16.527l0.005 0.005c-10.387-10.284-16.934-24.43-17.306-40.105l-0.001-0.070z"></path>
</svg>
