<!-- Generated by IcoMoon.io -->
<svg version="1.1" xmlns="http://www.w3.org/2000/svg" width="1024" height="1024" viewBox="0 0 1024 1024">
<title></title>
<g id="icomoon-ignore">
</g>
<path fill="#000" d="M512 0c282.77 0 512 229.23 512 512s-229.23 512-512 512c-282.77 0-512-229.23-512-512s229.23-512 512-512z"></path>
<path fill="#fff" d="M277.149 533.855l349.005-346.602c6.519-6.475 17.014 1.405 12.611 9.471l-129.897 238.078c-2.901 5.307 0.944 11.786 6.993 11.786h224.483c7.232 0 10.722 8.857 5.435 13.794l-393.375 367.134c-7.053 6.582-17.552-2.693-11.889-10.503l186.215-256.889c3.817-5.267 0.056-12.647-6.451-12.647h-237.515c-7.113 0-10.662-8.61-5.615-13.623z"></path>
</svg>
