<!-- Generated by IcoMoon.io -->
<svg version="1.1" xmlns="http://www.w3.org/2000/svg" width="1024" height="1024" viewBox="0 0 1024 1024">
<title></title>
<g id="icomoon-ignore">
</g>
<path fill="#01579b" d="M208.836 815.165l-175.184-175.184c-20.776-21.304-33.65-51.42-33.65-80.856 0-13.626 7.679-34.931 13.473-47.13l161.706-336.816 33.65 639.981z"></path>
<path fill="#40c4ff" d="M808.463 208.835l-175.184-175.184c-15.281-15.358-47.13-33.65-74.080-33.65-23.19 0-45.92 4.667-60.603 13.473l-323.342 161.706 633.206 33.65z"></path>
<path fill="#40c4ff" d="M417.668 1024.001h424.446v-181.884l-316.64-101.104-289.691 101.104z"></path>
<path fill="#29b6f6" d="M175.18 720.835c0 54.052 6.774 67.301 33.65 94.329l26.952 26.952h606.33l-296.39-336.816-370.542-330.118v545.652z"></path>
<path fill="#01579b" d="M714.133 175.108h-538.953l666.933 666.933h181.884v-417.672l-215.611-215.611c-30.262-30.339-57.139-33.65-94.253-33.65z"></path>
<path fill="#fff" opacity="0.2" d="M215.612 821.863c-26.952-27.028-33.65-53.675-33.65-101.027v-538.953l-6.698-6.698v545.652c-0.076 47.354-0.076 60.45 40.351 101.027v0z"></path>
<path fill="#263238" opacity="0.2" d="M1017.298 417.671v417.672h-181.884l6.698 6.774h181.884v-417.748z"></path>
<path fill="#fff" opacity="0.2" d="M808.463 208.835c-33.428-33.428-60.756-33.65-101.027-33.65h-532.179l6.698 6.698h525.474c20.1 0 70.84-3.388 101.027 26.952v0z"></path>
<path fill="#000" opacity="0.2" d="M1017.298 417.671l-384.021-384.021c-15.281-15.358-47.13-33.65-74.080-33.65-23.19 0-45.92 4.667-60.603 13.473l-323.342 161.706-161.706 336.816c-5.795 12.27-13.473 33.575-13.473 47.13 0 29.436 12.95 59.476 33.65 80.856l161.406 160.28c3.84 4.744 8.354 9.562 13.701 14.906l208.76 208.76h424.37v-181.884h181.884v-417.672l-6.551-6.698z"></path>
</svg>
