<?xml version="1.0" standalone="no"?><!DOCTYPE svg PUBLIC "-//W3C//DTD SVG 1.1//EN" "http://www.w3.org/Graphics/SVG/1.1/DTD/svg11.dtd"><svg t="1536806021046" class="icon" style="" viewBox="0 0 1024 1024" version="1.1" xmlns="http://www.w3.org/2000/svg" p-id="12783" xmlns:xlink="http://www.w3.org/1999/xlink" width="200" height="200"><defs><style type="text/css"></style></defs><path d="M145.6 0C100.8 0 64 36.8 64 81.6v860.8C64 987.2 100.8 1024 145.6 1024h732.8c44.8 0 81.6-36.8 81.6-81.6V324.8L657.6 0h-512z" fill="#3C8CEA" p-id="12784" data-spm-anchor-id="a313x.7781069.0.i0" class="selected"></path><path d="M225.6 598.4h345.6v33.6H225.6z m0 76.8h345.6v33.6H225.6z m0 76.8h345.6v33.6H225.6z m0 76.8h196.8v33.6H225.6z" fill="#FFFFFF" p-id="12785" data-spm-anchor-id="a313x.7781069.0.i2" class="selected"></path><path d="M960 326.4v16H755.2s-102.4-20.8-99.2-107.2c0 0 3.2 91.2 96 91.2h208z" fill="#2D6FE4" p-id="12786"></path><path d="M657.6 0v233.6c0 25.6 17.6 92.8 97.6 92.8H960L657.6 0z" fill="#FFFFFF" p-id="12787"></path></svg>