<!-- Generated by IcoMoon.io -->
<svg version="1.1" xmlns="http://www.w3.org/2000/svg" width="512" height="512" viewBox="0 0 512 512">
<title></title>
<g id="icomoon-ignore">
</g>
<path fill="#000" d="M-32.849-5.935v513.245h546.045v-513.245zM446.211 252.767c-2.31 4.158-4.62 8.315-6.93 12.473-2.503 5.55-7.989 9.344-14.36 9.344-0.637 0-1.265-0.038-1.884-0.112l0.075 0.007c-0.178-0.010-0.387-0.016-0.598-0.016-2.572 0-4.938 0.875-6.819 2.344l0.024-0.018c-6.467 4.158-12.935 8.315-19.402 12.012-4.626 2.541-10.138 4.036-15.998 4.036-4.733 0-9.237-0.975-13.325-2.735l0.219 0.084c-14.517-5.784-31.337-9.169-48.94-9.24h-0.029c-0.594-0.024-1.291-0.037-1.991-0.037-16.855 0-31.908 7.715-41.82 19.806l-0.075 0.095c-4.082 5.692-7.388 12.291-9.572 19.38l-0.128 0.484c-5.543 14.321-10.625 98.861-10.625 120.573 0 0-81.306-15.707-157.531-93.779l19.864-52.202h-29.566l45.273-47.583h-77.611l45.273-47.583h-73.915l81.769-87.313c24.46-24.144 55.505-41.671 90.2-49.647l1.27-0.246c32.799-5.544 41.115-2.309 61.442 3.696l11.087 3.234 3.696 1.386 14.321 4.157c4.567 1.288 9.813 2.028 15.231 2.028 4.758 0 9.382-0.57 13.81-1.648l-0.399 0.082c3.994-1.086 8.579-1.71 13.311-1.71 9.172 0 17.796 2.344 25.306 6.467l-0.274-0.137c10.314 5.933 17.491 16.319 18.923 28.463l0.017 0.178c1.267 10.897 7.563 20.096 16.472 25.322l0.159 0.087c12.087 6.784 26.274 13.18 41.036 18.352l1.926 0.588c10.625 4.157 20.788 8.315 31.413 12.473 5.397 2.069 9.915 5.399 13.351 9.642l0.046 0.059c2.839 3.385 4.695 7.681 5.077 12.395l0.005 0.078c0.462 9.239 1.849 18.478 2.31 27.718v0c0.060 1.086 0.094 2.357 0.094 3.636 0 12.207-3.115 23.686-8.594 33.687l0.183-0.365z"></path>
</svg>
