<!-- Generated by IcoMoon.io -->
<svg version="1.1" xmlns="http://www.w3.org/2000/svg" width="1024" height="1024" viewBox="0 0 1024 1024">
<title></title>
<g id="icomoon-ignore">
</g>
<path fill="#654ff0" d="M629.129 0.001c0 1.808 0 3.616 0 5.518 0 64.846-52.569 117.415-117.415 117.415s-117.415-52.569-117.415-117.415v0c0-1.903 0-3.711 0-5.518h-394.3v1024h1024v-1024zM488.689 914.389l-49.858-246.723h-0.857l-53.949 246.723h-68.698l-77.832-362.52h67.842l46.433 246.723h0.857l55.948-246.723h63.464l50.239 249.767h0.857l52.998-249.767h66.604l-86.491 362.52zM862.246 914.389l-23.121-80.686h-122.077l-17.792 80.686h-67.842l87.728-362.52h107.044l106.663 362.52z"></path>
<path fill="#654ff0" d="M759.961 641.213l-29.591 133.019h92.105l-33.968-133.019h-28.545z"></path>
</svg>
