<?xml version="1.0" encoding="UTF-8"?>
<svg width="796px" height="201px" viewBox="0 0 796 201" version="1.1" xmlns="http://www.w3.org/2000/svg" xmlns:xlink="http://www.w3.org/1999/xlink">
    <!-- Generator: Sketch 47.1 (45422) - http://www.bohemiancoding.com/sketch -->
    <title>LOGO 白色版</title>
    <desc>Created with Sketch.</desc>
    <defs>
        <linearGradient x1="50%" y1="0%" x2="50%" y2="100%" id="linearGradient-1">
            <stop stop-color="#FAD961" offset="0%"></stop>
            <stop stop-color="#F76B1C" offset="100%"></stop>
        </linearGradient>
    </defs>
    <g id="Page-4" stroke="none" stroke-width="1" fill="none" fill-rule="evenodd">
        <g id="Group-2">
            <path d="M310.567065,196.988632 C310.567065,196.988632 343.289323,192.521177 349.856419,160.78292 C350.592387,157.236238 351,153.359896 351,149.108425 C351,146.459781 350.830161,143.947548 350.501806,141.54899 C345.655742,105.650202 306.887226,97.5792268 306.887226,97.5792268 C306.887226,97.5792268 313.624161,58.9181189 278.093903,38.6611079 C242.563645,18.4268321 210.101806,38.6611079 210.101806,38.6611079 C210.101806,38.6611079 191.102516,0 139.65271,0 C73.494871,0 62.4666774,75.4806694 62.4666774,75.4806694 C62.4666774,75.4806694 0,79.1864974 0,134.398788 C0,189.633814 56.9639032,197 56.9639032,197 L310.567065,196.988632 L310.567065,196.988632 Z" id="Shape" fill="#FFFFFF" fill-rule="nonzero"></path>
            <g id="Group" transform="translate(92.000000, 19.000000)" fill="url(#linearGradient-1)">
                <polygon id="Rectangle" points="19 108 0 114.537222 0 28.6360587 86.1654439 0.00233778843 80 12.5 10 36 10 99.5 25 94.5"></polygon>
                <polygon id="Rectangle" points="61.6742671 129.802326 25.4750008 144.675643 25.4750008 58.7744798 111.640445 30.1407589 110.174267 66.3023256 61.6742671 82.3023256"></polygon>
                <polygon id="Rectangle" points="68.1830904 171.802326 68.1830904 85.9011628 154.348534 57.2674419 154.348534 141.459129 144.5 134.5 144.5 71 78.5 93 78.5 158"></polygon>
            </g>
        </g>
        <path d="M444.176707,67.5312679 L400.458979,67.5312679 L400.458979,55.0240964 L466.49455,55.0240964 L410.613884,146.647734 L400,139.935169 L444.176707,67.5312679 Z M528.686173,67.5312679 L501.376936,67.5312679 L497.016638,82.2185886 C497.666861,82.1420918 498.288389,82.08472 498.881239,82.0464716 C499.47409,82.0082232 500.019122,81.9890993 500.516351,81.9890993 C509.122246,81.9890993 516.178974,84.8959357 521.686747,90.7096959 C527.232768,96.4852077 530.005737,103.886166 530.005737,112.912794 C530.005737,122.245409 526.869414,129.933227 520.596672,135.976477 C514.323931,142.019728 506.42575,145.041308 496.901893,145.041308 C485.159628,145.041308 475.903648,139.533618 469.133678,128.518072 L479.231211,119.969593 C482.023345,124.712397 484.834562,128.059084 487.664945,130.009753 C490.495329,131.922174 493.956759,132.878371 498.04934,132.878371 C503.404119,132.878371 507.898242,131.004226 511.531842,127.255881 C515.165442,123.39279 516.982215,118.707429 516.982215,113.199656 C516.982215,107.538889 515.184566,102.9109 511.589214,99.3155479 C507.993862,95.6054509 503.49974,93.7504303 498.106713,93.7504303 C492.10171,93.7504303 486.919127,96.3704079 482.558807,101.610442 L478.141136,101.610442 L492.082616,55.0240964 L528.686173,55.0240964 L528.686173,67.5312679 Z M615.490534,59.7860011 L615.490534,75.6207688 C607.764352,69.1567854 599.770552,65.9248422 591.508893,65.9248422 C582.405768,65.9248422 574.737075,69.1950333 568.502582,75.7355135 C562.229841,82.2377453 559.093517,90.1932978 559.093517,99.6024096 C559.093517,108.896776 562.229841,116.737585 568.502582,123.125072 C574.775323,129.512558 582.463141,132.706254 591.566265,132.706254 C596.270821,132.706254 600.267721,131.941297 603.557085,130.41136 C605.39301,129.646391 607.29584,128.613699 609.265634,127.313253 C611.235428,126.012807 613.310373,124.444645 615.490534,122.608721 L615.490534,138.73035 C607.840849,143.052422 599.808801,145.213425 591.394148,145.213425 C578.73392,145.213425 567.928903,140.795799 558.978772,131.960413 C550.06689,123.048531 545.611015,112.300885 545.611015,99.7171543 C545.611015,88.4338698 549.340181,78.3746856 556.798623,69.5393001 C565.978244,58.7149966 577.854201,53.302926 592.42685,53.302926 C600.382522,53.302926 608.07034,55.4639294 615.490534,59.7860011 Z M632.358003,143.606999 L632.358003,55.0240964 L650.946644,55.0240964 C659.858526,55.0240964 666.89613,55.9037969 672.059667,57.6632243 C677.605688,59.3844033 682.635281,62.3103637 687.148594,66.4411933 C696.289967,74.7793494 700.860585,85.737358 700.860585,99.3155479 C700.860585,112.931986 696.098728,123.947367 686.574871,132.36202 C681.793818,136.569346 676.78335,139.495306 671.543316,141.139989 C666.647518,142.784671 659.705534,143.606999 650.717154,143.606999 L632.358003,143.606999 Z M645.72576,131.042456 L651.749857,131.042456 C657.754859,131.042456 662.746203,130.411366 666.724039,129.149168 C670.701875,127.810473 674.297173,125.687718 677.51004,122.780838 C684.088769,116.775835 687.378084,108.95415 687.378084,99.3155479 C687.378084,89.6004487 684.127017,81.7213919 677.624785,75.6781411 C671.772776,70.2851136 663.147886,67.5886403 651.749857,67.5886403 L645.72576,67.5886403 L645.72576,131.042456 Z M717.670683,143.606999 L717.670683,49 L782.271945,116.584624 L782.271945,55.0240964 L795.639702,55.0240964 L795.639702,149 L731.038439,81.5874928 L731.038439,143.606999 L717.670683,143.606999 Z" id="75CDN" fill="#FFFFFF"></path>
    </g>
</svg>