<!-- Generated by IcoMoon.io -->
<svg version="1.1" xmlns="http://www.w3.org/2000/svg" width="1024" height="1024" viewBox="0 0 1024 1024">
<title></title>
<g id="icomoon-ignore">
</g>
<path d="M513.915 255.567c0-12.422 0-18.633 2.452-21.509 2.124-2.495 5.315-3.821 8.58-3.563 3.758 0.297 8.141 4.689 16.902 13.472l243.639 244.228c6.077 6.090 9.114 9.136 10.251 12.647 1.004 3.088 1.004 6.415 0 9.506-1.137 3.512-4.172 6.553-10.251 12.646l-243.639 244.228c-8.761 8.781-13.143 13.173-16.902 13.471-3.267 0.256-6.456-1.065-8.58-3.563-2.452-2.873-2.452-9.087-2.452-21.509v-500.055z"></path>
<path d="M606.566 39.17l378.266 378.263c52.224 52.227 52.224 136.907 0 189.13l-378.266 378.266c-52.229 52.229-136.904 52.229-189.133 0l-378.263-378.266c-52.227-52.224-52.227-136.903 0-189.13l378.263-378.263c52.227-52.227 136.903-52.227 189.133 0zM560.286 176.206c-26.112-26.114-68.454-26.114-94.566 0l-283.697 283.697c-26.114 26.114-26.114 68.452 0 94.564l283.697 283.698c26.114 26.112 68.455 26.112 94.566 0l283.698-283.698c26.112-26.112 26.112-68.449 0-94.564l-283.698-283.697z"></path>
</svg>
