<!-- Generated by IcoMoon.io -->
<svg version="1.1" xmlns="http://www.w3.org/2000/svg" width="1024" height="1024" viewBox="0 0 1024 1024">
<title></title>
<g id="icomoon-ignore">
</g>
<path fill="#000" d="M477.961 130.877l-68.318 131.654h52.172l-86.953 132.9c-26.086-3.735-45.947-7.45-52.172-7.45-23.596-2.49-42.232 6.205-57.132 23.596-13.656 17.391-12.43 40.986 1.245 53.417 7.45 6.205 27.331 19.88 36.026 26.086 0 0 1.245 0 1.245 1.245l3.735 2.49c2.49 1.245 4.96 1.245 7.45 1.245 8.695 0 16.145-6.205 16.145-14.9 0-3.735-2.49-7.45-4.96-9.941v0c-11.185-7.45-32.291-21.106-37.271-26.086-1.245-2.49-2.49-9.941 2.49-16.145 7.45-9.941 14.9-13.656 27.331-12.43 3.735 0 11.185 1.245 22.351 2.49 0 8.695 14.9 17.391 33.536 21.106 19.88 3.735 37.271-1.245 39.741-9.941 45.947 7.45 91.913 14.9 93.159 14.9 3.735 0 47.192-7.45 91.913-14.9 2.49 8.695 19.88 12.43 39.741 8.695 18.636-3.735 33.536-12.43 33.536-21.106 8.695 0 16.145-1.245 24.841-2.49 12.43-1.245 19.88 2.49 27.331 12.43 4.96 6.205 3.735 14.9 2.49 16.145-4.96 4.96-24.841 18.636-37.271 26.086v0c-2.49 3.735-4.96 7.45-4.96 11.185 0 7.45 7.45 14.9 16.145 14.9 2.49 0 4.96-1.245 7.45-1.245v0l2.49-2.49c0 0 1.245 0 1.245-1.245 8.695-6.205 28.576-19.88 36.026-26.086 13.656-12.43 13.656-36.026 1.245-53.417-14.9-18.636-33.536-26.086-57.132-23.596-17.391 1.245-158.986 24.841-185.071 28.576-17.391-2.49-73.277-11.185-120.489-18.636l221.078-175.131h-81.973l109.304-91.913h47.192c65.827 0 124.204 37.271 144.085 93.159l106.814 288.151c19.88 57.132-2.49 119.244-55.887 154.026l-281.945 180.092c-52.172 33.536-122.959 33.536-176.377 0l-280.7-180.092c-53.417-34.782-77.013-96.874-55.887-154.026l106.814-288.151c19.88-55.887 78.258-93.159 144.085-93.159h145.33zM654.323 729.569c-8.695-2.49-40.986-12.43-40.986-12.43-16.145-4.96-33.536-6.205-50.927-4.96s-171.396 18.636-186.317 21.106c-14.9 1.245-29.801-2.49-29.801-2.49l90.668 58.377c14.9 9.941 33.536 16.145 53.417 16.145h44.721c18.636 0 37.271-4.96 53.417-16.145l90.668-58.377s-13.656 1.245-24.841-1.245zM582.285 543.252c0 0-1.245 0-1.245 0h-42.232c-8.695 1.245-14.9-4.96-14.9-13.656 0-1.245 0-2.49 1.245-3.735 1.245-6.205 7.45-9.941 13.656-9.941h33.536c2.49-2.49 3.735-6.205 3.735-9.941 0-9.941-8.695-17.391-19.88-17.391h-101.854c-6.205 0-13.656 3.735-17.391 8.695-2.49 6.205-2.49 13.656 1.245 18.636h38.497c7.45 0 12.43 3.735 14.9 9.941 0 1.245 1.245 2.49 1.245 3.735 0 7.45-7.45 13.656-14.9 13.656h-43.477c0 0-1.245 0-1.245 0l-99.363 162.701s18.636-12.43 38.497-16.145c22.351-3.735 206.177-26.086 206.177-26.086s47.192 18.636 68.318 24.841c13.656 3.735 34.782 17.391 34.782 17.391l-99.363-162.701zM-533.087 1131.983l-31.046-59.622z"></path>
</svg>
