<!-- Generated by IcoMoon.io -->
<svg version="1.1" xmlns="http://www.w3.org/2000/svg" width="512" height="512" viewBox="0 0 512 512">
<title></title>
<g id="icomoon-ignore">
</g>
<path fill="#0a6955" d="M0.001 256c0 109.291 68.501 202.602 164.906 239.317-2.346-19.99-4.843-52.95 0.534-76.075 4.63-19.882 29.888-126.678 29.888-126.678s-7.616-15.253-7.616-37.846c0-35.413 20.523-61.867 46.101-61.867 21.76 0 32.256 16.32 32.256 35.882 0 21.867-13.93 54.549-21.12 84.864-5.994 25.365 12.736 46.058 37.738 46.058 45.291 0 80.128-47.766 80.128-116.714 0-61.035-43.861-103.68-106.475-103.68-72.49 0-115.050 54.379-115.050 110.592 0 21.909 8.427 45.376 18.965 58.154 1.275 1.368 2.059 3.209 2.059 5.233 0 0.742-0.106 1.459-0.302 2.139l0.013-0.054c-1.941 8.064-6.25 25.365-7.083 28.906-1.131 4.651-3.691 5.654-8.534 3.392-31.829-14.805-51.712-61.334-51.712-98.709 0-80.406 58.389-154.219 168.363-154.219 88.406 0 157.12 62.998 157.12 147.179 0 87.83-55.36 158.528-132.245 158.528-25.834 0-50.090-13.44-58.411-29.291 0 0-12.779 48.683-15.872 60.587-6.016 23.125-22.698 52.394-33.046 69.013 23.851 7.339 49.152 11.286 75.392 11.286 141.376 0 256-114.624 256-256s-114.624-256-256-256-256 114.624-256 256z"></path>
</svg>
